<?xml version="1.0" standalone="no"?>
<!DOCTYPE svg PUBLIC "-//W3C//DTD SVG 20010904//EN"
 "http://www.w3.org/TR/2001/REC-SVG-20010904/DTD/svg10.dtd">
<svg version="1.0" xmlns="http://www.w3.org/2000/svg"
 width="167.000000pt" height="64.000000pt" viewBox="0 0 167.000000 64.000000"
 preserveAspectRatio="xMidYMid meet">

<g transform="translate(0.000000,64.000000) scale(0.100000,-0.100000)"
fill="#000000" stroke="none">
<path d="M10 320 l0 -320 90 0 90 0 2 177 3 178 45 -178 44 -177 78 0 c56 0
78 4 78 13 0 6 -35 149 -78 317 l-78 305 -137 3 -137 3 0 -321z"/>
<path d="M461 603 c-6 -21 -22 -87 -37 -147 l-27 -109 38 -155 c21 -86 41
-148 45 -141 4 8 22 77 41 153 l34 140 3 -172 2 -172 95 0 95 0 0 320 0 320
-140 0 -139 0 -10 -37z"/>
<path d="M970 435 c0 -280 -8 -295 -136 -282 l-54 6 0 -80 0 -79 103 0 c114 0
161 15 209 66 43 46 58 103 58 223 0 92 -5 122 -35 225 -19 66 -35 121 -35
123 0 1 -25 3 -55 3 l-55 0 0 -205z"/>
<path d="M1120 634 c0 -3 41 -145 90 -316 50 -170 90 -311 90 -314 0 -2 42 -4
93 -4 l93 0 88 307 c49 170 91 314 94 321 3 10 -16 12 -88 10 -90 -3 -94 -4
-101 -28 -4 -14 -24 -91 -45 -173 -20 -81 -40 -145 -43 -142 -3 3 -19 63 -37
133 -17 70 -37 146 -43 170 l-12 42 -89 0 c-50 0 -90 -3 -90 -6z"/>
</g>
</svg>
